ply
format ascii 1.0
comment Created by Blender 2.83.2 - www.blender.org, source file: '1x1x1_cube_8_subdivisions.blend'
element vertex 486
property float x
property float y
property float z
property float nx
property float ny
property float nz
property float s
property float t
element face 576
property list uchar uint vertex_indices
end_header
-1.000000 0.750000 0.750000 -1.000000 -0.000000 0.000000 0.593750 0.218750
-1.000000 0.750000 1.000000 -1.000000 -0.000000 0.000000 0.625000 0.218750
-1.000000 1.000000 1.000000 -1.000000 -0.000000 0.000000 0.625000 0.250000
-1.000000 1.000000 0.750000 -1.000000 -0.000000 0.000000 0.593750 0.250000
0.750000 1.000000 0.750000 0.000000 1.000000 0.000000 0.593750 0.468750
0.750000 1.000000 1.000000 0.000000 1.000000 0.000000 0.625000 0.468750
1.000000 1.000000 1.000000 0.000000 1.000000 0.000000 0.625000 0.500000
1.000000 1.000000 0.750000 0.000000 1.000000 0.000000 0.593750 0.500000
1.000000 1.000000 1.000000 1.000000 0.000000 -0.000000 0.625000 0.500000
1.000000 0.750000 0.750000 1.000000 0.000000 -0.000000 0.593750 0.531250
1.000000 1.000000 0.750000 1.000000 0.000000 -0.000000 0.593750 0.500000
1.000000 -1.000000 1.000000 0.000000 -1.000000 0.000000 0.625000 0.750000
0.750000 -1.000000 0.750000 0.000000 -1.000000 0.000000 0.593750 0.781250
1.000000 -1.000000 0.750000 0.000000 -1.000000 0.000000 0.593750 0.750000
0.750000 -0.750000 -1.000000 0.000000 0.000000 -1.000000 0.343750 0.718750
1.000000 -0.750000 -1.000000 0.000000 0.000000 -1.000000 0.375000 0.718750
1.000000 -1.000000 -1.000000 0.000000 0.000000 -1.000000 0.375000 0.750000
0.750000 -1.000000 -1.000000 0.000000 0.000000 -1.000000 0.343750 0.750000
-1.000000 1.000000 1.000000 0.000000 0.000000 1.000000 0.875000 0.500000
-0.750000 0.750000 1.000000 0.000000 0.000000 1.000000 0.843750 0.531250
-0.750000 1.000000 1.000000 0.000000 0.000000 1.000000 0.843750 0.500000
1.000000 0.750000 1.000000 1.000000 0.000000 0.000000 0.625000 0.531250
0.750000 -1.000000 1.000000 0.000000 -1.000000 0.000000 0.625000 0.781250
-1.000000 0.750000 1.000000 0.000000 -0.000000 1.000000 0.875000 0.531250
0.000000 0.000000 1.000000 0.000000 -0.000000 1.000000 0.750000 0.625000
0.000000 -0.250000 1.000000 0.000000 -0.000000 1.000000 0.750000 0.656250
0.250000 -0.250000 1.000000 0.000000 -0.000000 1.000000 0.718750 0.656250
-0.250000 0.000000 1.000000 0.000000 -0.000000 1.000000 0.781250 0.625000
-1.000000 0.000000 1.000000 0.000000 -0.000000 1.000000 0.875000 0.625000
-1.000000 -0.250000 1.000000 0.000000 -0.000000 1.000000 0.875000 0.656250
-0.750000 -0.250000 1.000000 0.000000 -0.000000 1.000000 0.843750 0.656250
0.000000 -1.000000 0.000000 0.000000 -1.000000 0.000000 0.500000 0.875000
-0.250000 -1.000000 0.000000 0.000000 -1.000000 0.000000 0.500000 0.906250
-0.250000 -1.000000 -0.250000 0.000000 -1.000000 0.000000 0.468750 0.906250
0.000000 -1.000000 0.250000 0.000000 -1.000000 0.000000 0.531250 0.875000
0.000000 -1.000000 1.000000 0.000000 -1.000000 0.000000 0.625000 0.875000
-0.250000 -1.000000 1.000000 0.000000 -1.000000 0.000000 0.625000 0.906250
-0.250000 -1.000000 0.750000 0.000000 -1.000000 0.000000 0.593750 0.906250
1.000000 0.000000 0.000000 1.000000 0.000000 0.000000 0.500000 0.625000
1.000000 -0.250000 0.000000 1.000000 0.000000 0.000000 0.500000 0.656250
1.000000 -0.250000 -0.250000 1.000000 0.000000 0.000000 0.468750 0.656250
1.000000 0.000000 0.250000 1.000000 -0.000000 0.000000 0.531250 0.625000
1.000000 0.000000 1.000000 1.000000 0.000000 0.000000 0.625000 0.625000
1.000000 -0.250000 1.000000 1.000000 0.000000 0.000000 0.625000 0.656250
1.000000 -0.250000 0.750000 1.000000 0.000000 0.000000 0.593750 0.656250
0.000000 1.000000 1.000000 0.000000 0.000000 1.000000 0.750000 0.500000
0.250000 0.750000 1.000000 0.000000 0.000000 1.000000 0.718750 0.531250
0.250000 1.000000 1.000000 0.000000 0.000000 1.000000 0.718750 0.500000
0.000000 0.750000 1.000000 0.000000 -0.000000 1.000000 0.750000 0.531250
0.250000 0.000000 1.000000 0.000000 0.000000 1.000000 0.718750 0.625000
-0.250000 -0.750000 -1.000000 0.000000 0.000000 -1.000000 0.218750 0.718750
0.000000 -0.750000 -1.000000 0.000000 0.000000 -1.000000 0.250000 0.718750
0.000000 -1.000000 -1.000000 0.000000 0.000000 -1.000000 0.250000 0.750000
-0.250000 -1.000000 -1.000000 0.000000 0.000000 -1.000000 0.218750 0.750000
-0.250000 0.250000 -1.000000 0.000000 0.000000 -1.000000 0.218750 0.593750
0.000000 0.250000 -1.000000 0.000000 0.000000 -1.000000 0.250000 0.593750
0.000000 0.000000 -1.000000 0.000000 0.000000 -1.000000 0.250000 0.625000
-0.250000 0.000000 -1.000000 0.000000 0.000000 -1.000000 0.218750 0.625000
0.750000 0.250000 -1.000000 0.000000 0.000000 -1.000000 0.343750 0.593750
1.000000 0.250000 -1.000000 0.000000 0.000000 -1.000000 0.375000 0.593750
1.000000 0.000000 -1.000000 0.000000 0.000000 -1.000000 0.375000 0.625000
0.750000 0.000000 -1.000000 0.000000 0.000000 -1.000000 0.343750 0.625000
1.000000 -1.000000 0.000000 0.000000 -1.000000 0.000000 0.500000 0.750000
0.750000 -1.000000 -0.250000 0.000000 -1.000000 0.000000 0.468750 0.781250
1.000000 -1.000000 -0.250000 0.000000 -1.000000 0.000000 0.468750 0.750000
0.750000 -1.000000 0.000000 0.000000 -1.000000 0.000000 0.500000 0.781250
0.000000 -1.000000 -0.250000 0.000000 -1.000000 0.000000 0.468750 0.875000
1.000000 1.000000 0.000000 1.000000 0.000000 -0.000000 0.500000 0.500000
1.000000 0.750000 -0.250000 1.000000 0.000000 -0.000000 0.468750 0.531250
1.000000 1.000000 -0.250000 1.000000 0.000000 -0.000000 0.468750 0.500000
1.000000 0.750000 0.000000 1.000000 0.000000 0.000000 0.500000 0.531250
1.000000 0.000000 -0.250000 1.000000 0.000000 -0.000000 0.468750 0.625000
0.750000 1.000000 -0.250000 0.000000 1.000000 0.000000 0.468750 0.468750
0.750000 1.000000 0.000000 0.000000 1.000000 0.000000 0.500000 0.468750
1.000000 1.000000 0.000000 0.000000 1.000000 0.000000 0.500000 0.500000
1.000000 1.000000 -0.250000 0.000000 1.000000 0.000000 0.468750 0.500000
-0.250000 1.000000 -0.250000 0.000000 1.000000 0.000000 0.468750 0.343750
-0.250000 1.000000 0.000000 0.000000 1.000000 0.000000 0.500000 0.343750
0.000000 1.000000 0.000000 0.000000 1.000000 0.000000 0.500000 0.375000
0.000000 1.000000 -0.250000 0.000000 1.000000 0.000000 0.468750 0.375000
-0.250000 1.000000 0.750000 0.000000 1.000000 0.000000 0.593750 0.343750
-0.250000 1.000000 1.000000 0.000000 1.000000 0.000000 0.625000 0.343750
0.000000 1.000000 1.000000 0.000000 1.000000 0.000000 0.625000 0.375000
0.000000 1.000000 0.750000 0.000000 1.000000 0.000000 0.593750 0.375000
-1.000000 0.750000 -0.250000 -1.000000 -0.000000 0.000000 0.468750 0.218750
-1.000000 0.750000 0.000000 -1.000000 -0.000000 0.000000 0.500000 0.218750
-1.000000 1.000000 0.000000 -1.000000 -0.000000 0.000000 0.500000 0.250000
-1.000000 1.000000 -0.250000 -1.000000 -0.000000 0.000000 0.468750 0.250000
-1.000000 -0.250000 -0.250000 -1.000000 -0.000000 0.000000 0.468750 0.093750
-1.000000 -0.250000 0.000000 -1.000000 -0.000000 0.000000 0.500000 0.093750
-1.000000 0.000000 0.000000 -1.000000 -0.000000 0.000000 0.500000 0.125000
-1.000000 0.000000 -0.250000 -1.000000 -0.000000 0.000000 0.468750 0.125000
-1.000000 -0.250000 0.750000 -1.000000 -0.000000 0.000000 0.593750 0.093750
-1.000000 -0.250000 1.000000 -1.000000 -0.000000 0.000000 0.625000 0.093750
-1.000000 0.000000 1.000000 -1.000000 -0.000000 0.000000 0.625000 0.125000
-1.000000 0.000000 0.750000 -1.000000 -0.000000 0.000000 0.593750 0.125000
-1.000000 -0.250000 0.250000 -1.000000 -0.000000 0.000000 0.531250 0.093750
-1.000000 -0.250000 0.500000 -1.000000 -0.000000 0.000000 0.562500 0.093750
-1.000000 0.000000 0.500000 -1.000000 -0.000000 0.000000 0.562500 0.125000
-1.000000 0.000000 0.250000 -1.000000 -0.000000 0.000000 0.531250 0.125000
-1.000000 -0.750000 0.250000 -1.000000 -0.000000 0.000000 0.531250 0.031250
-1.000000 -0.750000 0.500000 -1.000000 -0.000000 0.000000 0.562500 0.031250
-1.000000 -0.500000 0.500000 -1.000000 -0.000000 0.000000 0.562500 0.062500
-1.000000 -0.500000 0.250000 -1.000000 -0.000000 0.000000 0.531250 0.062500
-1.000000 -0.750000 0.750000 -1.000000 -0.000000 0.000000 0.593750 0.031250
-1.000000 -0.750000 1.000000 -1.000000 -0.000000 0.000000 0.625000 0.031250
-1.000000 -0.500000 1.000000 -1.000000 -0.000000 0.000000 0.625000 0.062500
-1.000000 -0.500000 0.750000 -1.000000 -0.000000 0.000000 0.593750 0.062500
-1.000000 -0.250000 -0.750000 -1.000000 -0.000000 0.000000 0.406250 0.093750
-1.000000 -0.250000 -0.500000 -1.000000 -0.000000 0.000000 0.437500 0.093750
-1.000000 0.000000 -0.500000 -1.000000 -0.000000 0.000000 0.437500 0.125000
-1.000000 0.000000 -0.750000 -1.000000 -0.000000 0.000000 0.406250 0.125000
-1.000000 -0.750000 -0.750000 -1.000000 -0.000000 0.000000 0.406250 0.031250
-1.000000 -0.750000 -0.500000 -1.000000 -0.000000 0.000000 0.437500 0.031250
-1.000000 -0.500000 -0.500000 -1.000000 -0.000000 0.000000 0.437500 0.062500
-1.000000 -0.500000 -0.750000 -1.000000 -0.000000 0.000000 0.406250 0.062500
-1.000000 -0.750000 -0.250000 -1.000000 -0.000000 0.000000 0.468750 0.031250
-1.000000 -0.750000 0.000000 -1.000000 -0.000000 0.000000 0.500000 0.031250
-1.000000 -0.500000 0.000000 -1.000000 -0.000000 0.000000 0.500000 0.062500
-1.000000 -0.500000 -0.250000 -1.000000 -0.000000 0.000000 0.468750 0.062500
-1.000000 0.750000 -0.750000 -1.000000 -0.000000 0.000000 0.406250 0.218750
-1.000000 0.750000 -0.500000 -1.000000 -0.000000 0.000000 0.437500 0.218750
-1.000000 1.000000 -0.500000 -1.000000 -0.000000 0.000000 0.437500 0.250000
-1.000000 1.000000 -0.750000 -1.000000 -0.000000 0.000000 0.406250 0.250000
-1.000000 0.250000 -0.750000 -1.000000 -0.000000 0.000000 0.406250 0.156250
-1.000000 0.250000 -0.500000 -1.000000 -0.000000 0.000000 0.437500 0.156250
-1.000000 0.500000 -0.500000 -1.000000 -0.000000 0.000000 0.437500 0.187500
-1.000000 0.500000 -0.750000 -1.000000 -0.000000 0.000000 0.406250 0.187500
-1.000000 0.250000 -0.250000 -1.000000 -0.000000 0.000000 0.468750 0.156250
-1.000000 0.250000 0.000000 -1.000000 -0.000000 0.000000 0.500000 0.156250
-1.000000 0.500000 0.000000 -1.000000 -0.000000 0.000000 0.500000 0.187500
-1.000000 0.500000 -0.250000 -1.000000 -0.000000 0.000000 0.468750 0.187500
-0.250000 1.000000 0.250000 0.000000 1.000000 0.000000 0.531250 0.343750
-0.250000 1.000000 0.500000 0.000000 1.000000 0.000000 0.562500 0.343750
0.000000 1.000000 0.500000 0.000000 1.000000 0.000000 0.562500 0.375000
0.000000 1.000000 0.250000 0.000000 1.000000 0.000000 0.531250 0.375000
-0.750000 1.000000 0.250000 0.000000 1.000000 0.000000 0.531250 0.281250
-0.750000 1.000000 0.500000 0.000000 1.000000 0.000000 0.562500 0.281250
-0.500000 1.000000 0.500000 0.000000 1.000000 0.000000 0.562500 0.312500
-0.500000 1.000000 0.250000 0.000000 1.000000 0.000000 0.531250 0.312500
-0.750000 1.000000 0.750000 0.000000 1.000000 0.000000 0.593750 0.281250
-0.750000 1.000000 1.000000 0.000000 1.000000 0.000000 0.625000 0.281250
-0.500000 1.000000 1.000000 0.000000 1.000000 0.000000 0.625000 0.312500
-0.500000 1.000000 0.750000 0.000000 1.000000 0.000000 0.593750 0.312500
-0.250000 1.000000 -0.750000 0.000000 1.000000 0.000000 0.406250 0.343750
-0.250000 1.000000 -0.500000 0.000000 1.000000 0.000000 0.437500 0.343750
0.000000 1.000000 -0.500000 0.000000 1.000000 0.000000 0.437500 0.375000
0.000000 1.000000 -0.750000 0.000000 1.000000 0.000000 0.406250 0.375000
-0.750000 1.000000 -0.750000 0.000000 1.000000 0.000000 0.406250 0.281250
-0.750000 1.000000 -0.500000 0.000000 1.000000 0.000000 0.437500 0.281250
-0.500000 1.000000 -0.500000 0.000000 1.000000 0.000000 0.437500 0.312500
-0.500000 1.000000 -0.750000 0.000000 1.000000 0.000000 0.406250 0.312500
-0.750000 1.000000 -0.250000 0.000000 1.000000 0.000000 0.468750 0.281250
-0.750000 1.000000 0.000000 0.000000 1.000000 0.000000 0.500000 0.281250
-0.500000 1.000000 0.000000 0.000000 1.000000 0.000000 0.500000 0.312500
-0.500000 1.000000 -0.250000 0.000000 1.000000 0.000000 0.468750 0.312500
0.750000 1.000000 -0.750000 0.000000 1.000000 0.000000 0.406250 0.468750
0.750000 1.000000 -0.500000 0.000000 1.000000 0.000000 0.437500 0.468750
1.000000 1.000000 -0.500000 0.000000 1.000000 0.000000 0.437500 0.500000
1.000000 1.000000 -0.750000 0.000000 1.000000 0.000000 0.406250 0.500000
0.250000 1.000000 -0.750000 0.000000 1.000000 0.000000 0.406250 0.406250
0.250000 1.000000 -0.500000 0.000000 1.000000 0.000000 0.437500 0.406250
0.500000 1.000000 -0.500000 0.000000 1.000000 0.000000 0.437500 0.437500
0.500000 1.000000 -0.750000 0.000000 1.000000 0.000000 0.406250 0.437500
0.250000 1.000000 -0.250000 0.000000 1.000000 0.000000 0.468750 0.406250
0.250000 1.000000 0.000000 0.000000 1.000000 0.000000 0.500000 0.406250
0.500000 1.000000 0.000000 0.000000 1.000000 0.000000 0.500000 0.437500
0.500000 1.000000 -0.250000 0.000000 1.000000 0.000000 0.468750 0.437500
1.000000 0.000000 -0.500000 1.000000 0.000000 -0.000000 0.437500 0.625000
1.000000 -0.250000 -0.750000 1.000000 0.000000 -0.000000 0.406250 0.656250
1.000000 0.000000 -0.750000 1.000000 0.000000 -0.000000 0.406250 0.625000
1.000000 -0.250000 -0.500000 1.000000 0.000000 0.000000 0.437500 0.656250
1.000000 -0.500000 -0.500000 1.000000 0.000000 -0.000000 0.437500 0.687500
1.000000 -0.750000 -0.750000 1.000000 0.000000 -0.000000 0.406250 0.718750
1.000000 -0.500000 -0.750000 1.000000 0.000000 -0.000000 0.406250 0.687500
1.000000 0.500000 -0.500000 1.000000 0.000000 0.000000 0.437500 0.562500
1.000000 0.250000 -0.500000 1.000000 0.000000 0.000000 0.437500 0.593750
1.000000 0.250000 -0.750000 1.000000 0.000000 0.000000 0.406250 0.593750
1.000000 0.500000 -0.250000 1.000000 -0.000000 0.000000 0.468750 0.562500
1.000000 0.500000 0.000000 1.000000 0.000000 0.000000 0.500000 0.562500
1.000000 0.250000 0.000000 1.000000 0.000000 0.000000 0.500000 0.593750
1.000000 0.250000 -0.250000 1.000000 0.000000 0.000000 0.468750 0.593750
1.000000 1.000000 -0.500000 1.000000 0.000000 -0.000000 0.437500 0.500000
1.000000 0.750000 -0.750000 1.000000 0.000000 -0.000000 0.406250 0.531250
1.000000 1.000000 -0.750000 1.000000 0.000000 -0.000000 0.406250 0.500000
1.000000 0.750000 -0.500000 1.000000 0.000000 0.000000 0.437500 0.531250
1.000000 0.500000 -0.750000 1.000000 0.000000 -0.000000 0.406250 0.562500
0.000000 -1.000000 -0.500000 0.000000 -1.000000 0.000000 0.437500 0.875000
-0.250000 -1.000000 -0.750000 0.000000 -1.000000 0.000000 0.406250 0.906250
0.000000 -1.000000 -0.750000 0.000000 -1.000000 0.000000 0.406250 0.875000
-0.250000 -1.000000 -0.500000 0.000000 -1.000000 0.000000 0.437500 0.906250
-0.500000 -1.000000 -0.500000 0.000000 -1.000000 0.000000 0.437500 0.937500
-0.750000 -1.000000 -0.750000 0.000000 -1.000000 0.000000 0.406250 0.968750
-0.500000 -1.000000 -0.750000 0.000000 -1.000000 0.000000 0.406250 0.937500
0.500000 -1.000000 -0.500000 0.000000 -1.000000 0.000000 0.437500 0.812500
0.250000 -1.000000 -0.500000 0.000000 -1.000000 0.000000 0.437500 0.843750
0.250000 -1.000000 -0.750000 0.000000 -1.000000 0.000000 0.406250 0.843750
0.500000 -1.000000 -0.250000 0.000000 -1.000000 0.000000 0.468750 0.812500
0.500000 -1.000000 0.000000 0.000000 -1.000000 0.000000 0.500000 0.812500
0.250000 -1.000000 0.000000 0.000000 -1.000000 0.000000 0.500000 0.843750
0.250000 -1.000000 -0.250000 0.000000 -1.000000 0.000000 0.468750 0.843750
1.000000 -1.000000 -0.500000 0.000000 -1.000000 0.000000 0.437500 0.750000
0.750000 -1.000000 -0.750000 0.000000 -1.000000 0.000000 0.406250 0.781250
1.000000 -1.000000 -0.750000 0.000000 -1.000000 0.000000 0.406250 0.750000
0.750000 -1.000000 -0.500000 0.000000 -1.000000 0.000000 0.437500 0.781250
0.500000 -1.000000 -0.750000 0.000000 -1.000000 0.000000 0.406250 0.812500
0.250000 0.250000 -1.000000 0.000000 0.000000 -1.000000 0.281250 0.593750
0.500000 0.250000 -1.000000 0.000000 0.000000 -1.000000 0.312500 0.593750
0.500000 0.000000 -1.000000 0.000000 0.000000 -1.000000 0.312500 0.625000
0.250000 0.000000 -1.000000 0.000000 0.000000 -1.000000 0.281250 0.625000
0.250000 0.750000 -1.000000 0.000000 0.000000 -1.000000 0.281250 0.531250
0.500000 0.750000 -1.000000 0.000000 0.000000 -1.000000 0.312500 0.531250
0.500000 0.500000 -1.000000 0.000000 0.000000 -1.000000 0.312500 0.562500
0.250000 0.500000 -1.000000 0.000000 0.000000 -1.000000 0.281250 0.562500
0.750000 0.750000 -1.000000 0.000000 0.000000 -1.000000 0.343750 0.531250
1.000000 0.750000 -1.000000 0.000000 0.000000 -1.000000 0.375000 0.531250
1.000000 0.500000 -1.000000 0.000000 0.000000 -1.000000 0.375000 0.562500
0.750000 0.500000 -1.000000 0.000000 0.000000 -1.000000 0.343750 0.562500
-0.750000 0.250000 -1.000000 0.000000 0.000000 -1.000000 0.156250 0.593750
-0.500000 0.250000 -1.000000 0.000000 0.000000 -1.000000 0.187500 0.593750
-0.500000 0.000000 -1.000000 0.000000 0.000000 -1.000000 0.187500 0.625000
-0.750000 0.000000 -1.000000 0.000000 0.000000 -1.000000 0.156250 0.625000
-0.750000 0.750000 -1.000000 0.000000 0.000000 -1.000000 0.156250 0.531250
-0.500000 0.750000 -1.000000 0.000000 0.000000 -1.000000 0.187500 0.531250
-0.500000 0.500000 -1.000000 0.000000 0.000000 -1.000000 0.187500 0.562500
-0.750000 0.500000 -1.000000 0.000000 0.000000 -1.000000 0.156250 0.562500
-0.250000 0.750000 -1.000000 0.000000 0.000000 -1.000000 0.218750 0.531250
0.000000 0.750000 -1.000000 0.000000 0.000000 -1.000000 0.250000 0.531250
0.000000 0.500000 -1.000000 0.000000 0.000000 -1.000000 0.250000 0.562500
-0.250000 0.500000 -1.000000 0.000000 0.000000 -1.000000 0.218750 0.562500
-0.750000 -0.750000 -1.000000 0.000000 0.000000 -1.000000 0.156250 0.718750
-0.500000 -0.750000 -1.000000 0.000000 0.000000 -1.000000 0.187500 0.718750
-0.500000 -1.000000 -1.000000 0.000000 0.000000 -1.000000 0.187500 0.750000
-0.750000 -1.000000 -1.000000 0.000000 0.000000 -1.000000 0.156250 0.750000
-0.750000 -0.250000 -1.000000 0.000000 0.000000 -1.000000 0.156250 0.656250
-0.500000 -0.250000 -1.000000 0.000000 0.000000 -1.000000 0.187500 0.656250
-0.500000 -0.500000 -1.000000 0.000000 0.000000 -1.000000 0.187500 0.687500
-0.750000 -0.500000 -1.000000 0.000000 0.000000 -1.000000 0.156250 0.687500
-0.250000 -0.250000 -1.000000 0.000000 0.000000 -1.000000 0.218750 0.656250
0.000000 -0.250000 -1.000000 0.000000 0.000000 -1.000000 0.250000 0.656250
0.000000 -0.500000 -1.000000 0.000000 0.000000 -1.000000 0.250000 0.687500
-0.250000 -0.500000 -1.000000 0.000000 0.000000 -1.000000 0.218750 0.687500
0.500000 0.000000 1.000000 0.000000 0.000000 1.000000 0.687500 0.625000
0.750000 -0.250000 1.000000 0.000000 0.000000 1.000000 0.656250 0.656250
0.750000 0.000000 1.000000 0.000000 0.000000 1.000000 0.656250 0.625000
0.500000 -0.250000 1.000000 0.000000 -0.000000 1.000000 0.687500 0.656250
0.500000 -0.500000 1.000000 0.000000 0.000000 1.000000 0.687500 0.687500
0.750000 -0.750000 1.000000 0.000000 0.000000 1.000000 0.656250 0.718750
0.750000 -0.500000 1.000000 0.000000 0.000000 1.000000 0.656250 0.687500
0.500000 0.500000 1.000000 0.000000 -0.000000 1.000000 0.687500 0.562500
0.500000 0.250000 1.000000 0.000000 -0.000000 1.000000 0.687500 0.593750
0.750000 0.250000 1.000000 0.000000 -0.000000 1.000000 0.656250 0.593750
0.250000 0.500000 1.000000 0.000000 -0.000000 1.000000 0.718750 0.562500
0.000000 0.500000 1.000000 0.000000 -0.000000 1.000000 0.750000 0.562500
0.000000 0.250000 1.000000 0.000000 -0.000000 1.000000 0.750000 0.593750
0.250000 0.250000 1.000000 0.000000 -0.000000 1.000000 0.718750 0.593750
0.500000 1.000000 1.000000 0.000000 0.000000 1.000000 0.687500 0.500000
0.750000 0.750000 1.000000 0.000000 0.000000 1.000000 0.656250 0.531250
0.750000 1.000000 1.000000 0.000000 0.000000 1.000000 0.656250 0.500000
0.500000 0.750000 1.000000 0.000000 -0.000000 1.000000 0.687500 0.531250
0.750000 0.500000 1.000000 0.000000 0.000000 1.000000 0.656250 0.562500
1.000000 -0.500000 0.500000 1.000000 0.000000 0.000000 0.562500 0.687500
1.000000 -0.750000 0.500000 1.000000 0.000000 0.000000 0.562500 0.718750
1.000000 -0.750000 0.250000 1.000000 0.000000 0.000000 0.531250 0.718750
1.000000 -0.500000 0.750000 1.000000 -0.000000 0.000000 0.593750 0.687500
1.000000 -0.500000 1.000000 1.000000 0.000000 0.000000 0.625000 0.687500
1.000000 -0.750000 1.000000 1.000000 0.000000 0.000000 0.625000 0.718750
1.000000 -0.750000 0.750000 1.000000 0.000000 0.000000 0.593750 0.718750
1.000000 -0.500000 0.000000 1.000000 -0.000000 0.000000 0.500000 0.687500
1.000000 -0.500000 0.250000 1.000000 -0.000000 0.000000 0.531250 0.687500
1.000000 -0.750000 0.000000 1.000000 -0.000000 0.000000 0.500000 0.718750
1.000000 -0.250000 0.250000 1.000000 -0.000000 0.000000 0.531250 0.656250
1.000000 0.000000 0.500000 1.000000 -0.000000 0.000000 0.562500 0.625000
1.000000 0.000000 0.750000 1.000000 -0.000000 0.000000 0.593750 0.625000
1.000000 -0.250000 0.500000 1.000000 -0.000000 0.000000 0.562500 0.656250
1.000000 -0.750000 -0.500000 1.000000 0.000000 0.000000 0.437500 0.718750
1.000000 -0.500000 -0.250000 1.000000 -0.000000 0.000000 0.468750 0.687500
1.000000 -0.750000 -0.250000 1.000000 0.000000 0.000000 0.468750 0.718750
-0.500000 -1.000000 0.500000 0.000000 -1.000000 0.000000 0.562500 0.937500
-0.750000 -1.000000 0.500000 0.000000 -1.000000 0.000000 0.562500 0.968750
-0.750000 -1.000000 0.250000 0.000000 -1.000000 0.000000 0.531250 0.968750
-0.500000 -1.000000 0.750000 0.000000 -1.000000 0.000000 0.593750 0.937500
-0.500000 -1.000000 1.000000 0.000000 -1.000000 0.000000 0.625000 0.937500
-0.750000 -1.000000 1.000000 0.000000 -1.000000 0.000000 0.625000 0.968750
-0.750000 -1.000000 0.750000 0.000000 -1.000000 0.000000 0.593750 0.968750
-0.500000 -1.000000 0.000000 0.000000 -1.000000 0.000000 0.500000 0.937500
-0.500000 -1.000000 0.250000 0.000000 -1.000000 0.000000 0.531250 0.937500
-0.750000 -1.000000 0.000000 0.000000 -1.000000 0.000000 0.500000 0.968750
-0.250000 -1.000000 0.250000 0.000000 -1.000000 -0.000000 0.531250 0.906250
0.000000 -1.000000 0.500000 0.000000 -1.000000 0.000000 0.562500 0.875000
0.000000 -1.000000 0.750000 0.000000 -1.000000 0.000000 0.593750 0.875000
-0.250000 -1.000000 0.500000 0.000000 -1.000000 0.000000 0.562500 0.906250
-0.750000 -1.000000 -0.500000 0.000000 -1.000000 0.000000 0.437500 0.968750
-0.500000 -1.000000 -0.250000 0.000000 -1.000000 0.000000 0.468750 0.937500
-0.750000 -1.000000 -0.250000 0.000000 -1.000000 0.000000 0.468750 0.968750
-0.500000 -0.500000 1.000000 0.000000 -0.000000 1.000000 0.812500 0.687500
-0.500000 -0.750000 1.000000 0.000000 -0.000000 1.000000 0.812500 0.718750
-0.250000 -0.750000 1.000000 0.000000 -0.000000 1.000000 0.781250 0.718750
-0.750000 -0.500000 1.000000 0.000000 -0.000000 1.000000 0.843750 0.687500
-1.000000 -0.500000 1.000000 0.000000 -0.000000 1.000000 0.875000 0.687500
-1.000000 -0.750000 1.000000 0.000000 -0.000000 1.000000 0.875000 0.718750
-0.750000 -0.750000 1.000000 0.000000 -0.000000 1.000000 0.843750 0.718750
0.000000 -0.500000 1.000000 0.000000 -0.000000 1.000000 0.750000 0.687500
-0.250000 -0.500000 1.000000 0.000000 -0.000000 1.000000 0.781250 0.687500
0.000000 -0.750000 1.000000 0.000000 -0.000000 1.000000 0.750000 0.718750
-0.250000 -0.250000 1.000000 -0.000000 0.000000 1.000000 0.781250 0.656250
-0.500000 0.000000 1.000000 0.000000 -0.000000 1.000000 0.812500 0.625000
-0.750000 0.000000 1.000000 0.000000 -0.000000 1.000000 0.843750 0.625000
-0.500000 -0.250000 1.000000 0.000000 -0.000000 1.000000 0.812500 0.656250
0.500000 -0.750000 1.000000 0.000000 -0.000000 1.000000 0.687500 0.718750
0.250000 -0.500000 1.000000 0.000000 -0.000000 1.000000 0.718750 0.687500
0.250000 -0.750000 1.000000 0.000000 -0.000000 1.000000 0.718750 0.718750
-0.500000 0.500000 1.000000 0.000000 -0.000000 1.000000 0.812500 0.562500
-0.500000 0.250000 1.000000 0.000000 -0.000000 1.000000 0.812500 0.593750
-0.250000 0.250000 1.000000 0.000000 -0.000000 1.000000 0.781250 0.593750
-0.750000 0.500000 1.000000 0.000000 -0.000000 1.000000 0.843750 0.562500
-1.000000 0.500000 1.000000 0.000000 -0.000000 1.000000 0.875000 0.562500
-1.000000 0.250000 1.000000 0.000000 -0.000000 1.000000 0.875000 0.593750
-0.750000 0.250000 1.000000 0.000000 -0.000000 1.000000 0.843750 0.593750
0.500000 -1.000000 0.500000 0.000000 -1.000000 0.000000 0.562500 0.812500
0.250000 -1.000000 0.500000 0.000000 -1.000000 0.000000 0.562500 0.843750
0.250000 -1.000000 0.250000 0.000000 -1.000000 0.000000 0.531250 0.843750
0.500000 -1.000000 0.750000 0.000000 -1.000000 0.000000 0.593750 0.812500
0.500000 -1.000000 1.000000 0.000000 -1.000000 0.000000 0.625000 0.812500
0.250000 -1.000000 1.000000 0.000000 -1.000000 0.000000 0.625000 0.843750
0.250000 -1.000000 0.750000 0.000000 -1.000000 0.000000 0.593750 0.843750
1.000000 0.500000 0.500000 1.000000 0.000000 0.000000 0.562500 0.562500
1.000000 0.250000 0.500000 1.000000 0.000000 0.000000 0.562500 0.593750
1.000000 0.250000 0.250000 1.000000 0.000000 0.000000 0.531250 0.593750
1.000000 0.500000 0.750000 1.000000 -0.000000 0.000000 0.593750 0.562500
1.000000 0.500000 1.000000 1.000000 0.000000 0.000000 0.625000 0.562500
1.000000 0.250000 1.000000 1.000000 0.000000 0.000000 0.625000 0.593750
1.000000 0.250000 0.750000 1.000000 0.000000 0.000000 0.593750 0.593750
-0.500000 1.000000 1.000000 0.000000 0.000000 1.000000 0.812500 0.500000
-0.250000 0.750000 1.000000 0.000000 0.000000 1.000000 0.781250 0.531250
-0.250000 1.000000 1.000000 0.000000 0.000000 1.000000 0.781250 0.500000
-0.500000 0.750000 1.000000 0.000000 -0.000000 1.000000 0.812500 0.531250
-0.250000 0.500000 1.000000 0.000000 0.000000 1.000000 0.781250 0.562500
0.250000 -0.750000 -1.000000 0.000000 0.000000 -1.000000 0.281250 0.718750
0.500000 -0.750000 -1.000000 0.000000 0.000000 -1.000000 0.312500 0.718750
0.500000 -1.000000 -1.000000 0.000000 0.000000 -1.000000 0.312500 0.750000
0.250000 -1.000000 -1.000000 0.000000 0.000000 -1.000000 0.281250 0.750000
0.250000 -0.250000 -1.000000 0.000000 0.000000 -1.000000 0.281250 0.656250
0.500000 -0.250000 -1.000000 0.000000 0.000000 -1.000000 0.312500 0.656250
0.500000 -0.500000 -1.000000 0.000000 0.000000 -1.000000 0.312500 0.687500
0.250000 -0.500000 -1.000000 0.000000 0.000000 -1.000000 0.281250 0.687500
0.750000 -0.250000 -1.000000 0.000000 0.000000 -1.000000 0.343750 0.656250
1.000000 -0.250000 -1.000000 0.000000 0.000000 -1.000000 0.375000 0.656250
1.000000 -0.500000 -1.000000 0.000000 0.000000 -1.000000 0.375000 0.687500
0.750000 -0.500000 -1.000000 0.000000 0.000000 -1.000000 0.343750 0.687500
1.000000 -1.000000 0.500000 0.000000 -1.000000 0.000000 0.562500 0.750000
0.750000 -1.000000 0.250000 0.000000 -1.000000 0.000000 0.531250 0.781250
1.000000 -1.000000 0.250000 0.000000 -1.000000 0.000000 0.531250 0.750000
0.750000 -1.000000 0.500000 0.000000 -1.000000 0.000000 0.562500 0.781250
0.500000 -1.000000 0.250000 0.000000 -1.000000 0.000000 0.531250 0.812500
1.000000 1.000000 0.500000 1.000000 0.000000 -0.000000 0.562500 0.500000
1.000000 0.750000 0.250000 1.000000 0.000000 -0.000000 0.531250 0.531250
1.000000 1.000000 0.250000 1.000000 0.000000 -0.000000 0.531250 0.500000
1.000000 0.750000 0.500000 1.000000 0.000000 0.000000 0.562500 0.531250
1.000000 0.500000 0.250000 1.000000 0.000000 -0.000000 0.531250 0.562500
0.750000 1.000000 0.250000 0.000000 1.000000 0.000000 0.531250 0.468750
0.750000 1.000000 0.500000 0.000000 1.000000 0.000000 0.562500 0.468750
1.000000 1.000000 0.500000 0.000000 1.000000 0.000000 0.562500 0.500000
1.000000 1.000000 0.250000 0.000000 1.000000 0.000000 0.531250 0.500000
0.250000 1.000000 0.250000 0.000000 1.000000 0.000000 0.531250 0.406250
0.250000 1.000000 0.500000 0.000000 1.000000 0.000000 0.562500 0.406250
0.500000 1.000000 0.500000 0.000000 1.000000 0.000000 0.562500 0.437500
0.500000 1.000000 0.250000 0.000000 1.000000 0.000000 0.531250 0.437500
0.250000 1.000000 0.750000 0.000000 1.000000 0.000000 0.593750 0.406250
0.250000 1.000000 1.000000 0.000000 1.000000 0.000000 0.625000 0.406250
0.500000 1.000000 1.000000 0.000000 1.000000 0.000000 0.625000 0.437500
0.500000 1.000000 0.750000 0.000000 1.000000 0.000000 0.593750 0.437500
-1.000000 0.750000 0.250000 -1.000000 -0.000000 0.000000 0.531250 0.218750
-1.000000 0.750000 0.500000 -1.000000 -0.000000 0.000000 0.562500 0.218750
-1.000000 1.000000 0.500000 -1.000000 -0.000000 0.000000 0.562500 0.250000
-1.000000 1.000000 0.250000 -1.000000 -0.000000 0.000000 0.531250 0.250000
-1.000000 0.250000 0.250000 -1.000000 -0.000000 0.000000 0.531250 0.156250
-1.000000 0.250000 0.500000 -1.000000 -0.000000 0.000000 0.562500 0.156250
-1.000000 0.500000 0.500000 -1.000000 -0.000000 0.000000 0.562500 0.187500
-1.000000 0.500000 0.250000 -1.000000 -0.000000 0.000000 0.531250 0.187500
-1.000000 0.250000 0.750000 -1.000000 -0.000000 0.000000 0.593750 0.156250
-1.000000 0.250000 1.000000 -1.000000 -0.000000 0.000000 0.625000 0.156250
-1.000000 0.500000 1.000000 -1.000000 -0.000000 0.000000 0.625000 0.187500
-1.000000 0.500000 0.750000 -1.000000 -0.000000 0.000000 0.593750 0.187500
0.250000 -1.000000 1.000000 0.000000 -0.000000 1.000000 0.718750 0.750000
0.500000 -1.000000 1.000000 0.000000 -0.000000 1.000000 0.687500 0.750000
0.000000 -1.000000 1.000000 0.000000 -0.000000 1.000000 0.750000 0.750000
0.750000 -1.000000 1.000000 0.000000 -0.000000 1.000000 0.656250 0.750000
1.000000 -1.000000 1.000000 0.000000 -0.000000 1.000000 0.625000 0.750000
-0.750000 -1.000000 1.000000 0.000000 -0.000000 1.000000 0.843750 0.750000
-0.500000 -1.000000 1.000000 0.000000 -0.000000 1.000000 0.812500 0.750000
-1.000000 -1.000000 1.000000 0.000000 -0.000000 1.000000 0.875000 0.750000
-0.250000 -1.000000 1.000000 0.000000 -0.000000 1.000000 0.781250 0.750000
-1.000000 -1.000000 -0.250000 0.000000 -1.000000 0.000000 0.468750 1.000000
-1.000000 -1.000000 -0.500000 0.000000 -1.000000 0.000000 0.437500 1.000000
-1.000000 -1.000000 0.000000 0.000000 -1.000000 0.000000 0.500000 1.000000
-1.000000 -1.000000 -0.750000 0.000000 -1.000000 0.000000 0.406250 1.000000
-1.000000 -1.000000 -1.000000 0.000000 -1.000000 0.000000 0.375000 1.000000
-1.000000 -1.000000 0.750000 0.000000 -1.000000 0.000000 0.593750 1.000000
-1.000000 -1.000000 0.500000 0.000000 -1.000000 0.000000 0.562500 1.000000
-1.000000 -1.000000 1.000000 0.000000 -1.000000 0.000000 0.625000 1.000000
-1.000000 -1.000000 0.250000 0.000000 -1.000000 0.000000 0.531250 1.000000
1.000000 -1.000000 -0.250000 1.000000 0.000000 0.000000 0.468750 0.750000
1.000000 -1.000000 -0.500000 1.000000 0.000000 0.000000 0.437500 0.750000
1.000000 -1.000000 0.000000 1.000000 0.000000 0.000000 0.500000 0.750000
1.000000 -1.000000 -0.750000 1.000000 0.000000 0.000000 0.406250 0.750000
1.000000 -1.000000 -1.000000 1.000000 0.000000 0.000000 0.375000 0.750000
1.000000 -1.000000 0.750000 1.000000 0.000000 0.000000 0.593750 0.750000
1.000000 -1.000000 0.500000 1.000000 0.000000 0.000000 0.562500 0.750000
1.000000 -1.000000 1.000000 1.000000 0.000000 0.000000 0.625000 0.750000
1.000000 -1.000000 0.250000 1.000000 0.000000 0.000000 0.531250 0.750000
1.000000 0.250000 1.000000 0.000000 0.000000 1.000000 0.625000 0.593750
1.000000 0.500000 1.000000 0.000000 0.000000 1.000000 0.625000 0.562500
1.000000 0.000000 1.000000 0.000000 0.000000 1.000000 0.625000 0.625000
1.000000 0.750000 1.000000 0.000000 0.000000 1.000000 0.625000 0.531250
1.000000 1.000000 1.000000 0.000000 0.000000 1.000000 0.625000 0.500000
1.000000 -0.750000 1.000000 0.000000 0.000000 1.000000 0.625000 0.718750
1.000000 -0.500000 1.000000 0.000000 0.000000 1.000000 0.625000 0.687500
1.000000 -0.250000 1.000000 0.000000 0.000000 1.000000 0.625000 0.656250
-1.000000 -0.250000 -1.000000 0.000000 0.000000 -1.000000 0.125000 0.656250
-1.000000 -0.500000 -1.000000 0.000000 0.000000 -1.000000 0.125000 0.687500
-1.000000 0.000000 -1.000000 0.000000 0.000000 -1.000000 0.125000 0.625000
-1.000000 -0.750000 -1.000000 0.000000 0.000000 -1.000000 0.125000 0.718750
-1.000000 -1.000000 -1.000000 0.000000 0.000000 -1.000000 0.125000 0.750000
-0.500000 1.000000 -1.000000 0.000000 0.000000 -1.000000 0.187500 0.500000
-0.250000 1.000000 -1.000000 0.000000 0.000000 -1.000000 0.218750 0.500000
0.000000 1.000000 -1.000000 0.000000 0.000000 -1.000000 0.250000 0.500000
-1.000000 0.750000 -1.000000 0.000000 0.000000 -1.000000 0.125000 0.531250
-1.000000 0.500000 -1.000000 0.000000 0.000000 -1.000000 0.125000 0.562500
-1.000000 1.000000 -1.000000 0.000000 0.000000 -1.000000 0.125000 0.500000
-0.750000 1.000000 -1.000000 0.000000 0.000000 -1.000000 0.156250 0.500000
-1.000000 0.250000 -1.000000 0.000000 0.000000 -1.000000 0.125000 0.593750
0.500000 1.000000 -1.000000 0.000000 0.000000 -1.000000 0.312500 0.500000
0.750000 1.000000 -1.000000 0.000000 0.000000 -1.000000 0.343750 0.500000
1.000000 1.000000 -1.000000 0.000000 0.000000 -1.000000 0.375000 0.500000
0.250000 1.000000 -1.000000 0.000000 0.000000 -1.000000 0.281250 0.500000
0.250000 -1.000000 -1.000000 0.000000 -1.000000 0.000000 0.375000 0.843750
0.500000 -1.000000 -1.000000 0.000000 -1.000000 0.000000 0.375000 0.812500
0.000000 -1.000000 -1.000000 0.000000 -1.000000 0.000000 0.375000 0.875000
0.750000 -1.000000 -1.000000 0.000000 -1.000000 0.000000 0.375000 0.781250
1.000000 -1.000000 -1.000000 0.000000 -1.000000 0.000000 0.375000 0.750000
-0.750000 -1.000000 -1.000000 0.000000 -1.000000 0.000000 0.375000 0.968750
-0.500000 -1.000000 -1.000000 0.000000 -1.000000 0.000000 0.375000 0.937500
-0.250000 -1.000000 -1.000000 0.000000 -1.000000 0.000000 0.375000 0.906250
1.000000 0.250000 -1.000000 1.000000 0.000000 -0.000000 0.375000 0.593750
1.000000 0.500000 -1.000000 1.000000 0.000000 -0.000000 0.375000 0.562500
1.000000 0.000000 -1.000000 1.000000 0.000000 -0.000000 0.375000 0.625000
1.000000 0.750000 -1.000000 1.000000 0.000000 -0.000000 0.375000 0.531250
1.000000 1.000000 -1.000000 1.000000 0.000000 -0.000000 0.375000 0.500000
1.000000 -0.750000 -1.000000 1.000000 0.000000 -0.000000 0.375000 0.718750
1.000000 -0.500000 -1.000000 1.000000 0.000000 -0.000000 0.375000 0.687500
1.000000 -0.250000 -1.000000 1.000000 0.000000 -0.000000 0.375000 0.656250
0.250000 1.000000 -1.000000 0.000000 1.000000 0.000000 0.375000 0.406250
0.500000 1.000000 -1.000000 0.000000 1.000000 0.000000 0.375000 0.437500
0.000000 1.000000 -1.000000 0.000000 1.000000 0.000000 0.375000 0.375000
0.750000 1.000000 -1.000000 0.000000 1.000000 0.000000 0.375000 0.468750
1.000000 1.000000 -1.000000 0.000000 1.000000 0.000000 0.375000 0.500000
-1.000000 1.000000 -0.500000 0.000000 1.000000 0.000000 0.437500 0.250000
-1.000000 1.000000 -0.250000 0.000000 1.000000 0.000000 0.468750 0.250000
-1.000000 1.000000 0.000000 0.000000 1.000000 0.000000 0.500000 0.250000
-0.750000 1.000000 -1.000000 0.000000 1.000000 0.000000 0.375000 0.281250
-0.500000 1.000000 -1.000000 0.000000 1.000000 0.000000 0.375000 0.312500
-1.000000 1.000000 -1.000000 0.000000 1.000000 0.000000 0.375000 0.250000
-1.000000 1.000000 -0.750000 0.000000 1.000000 0.000000 0.406250 0.250000
-0.250000 1.000000 -1.000000 0.000000 1.000000 0.000000 0.375000 0.343750
-1.000000 1.000000 0.500000 0.000000 1.000000 0.000000 0.562500 0.250000
-1.000000 1.000000 0.750000 0.000000 1.000000 0.000000 0.593750 0.250000
-1.000000 1.000000 1.000000 0.000000 1.000000 0.000000 0.625000 0.250000
-1.000000 1.000000 0.250000 0.000000 1.000000 0.000000 0.531250 0.250000
-1.000000 0.250000 -1.000000 -1.000000 -0.000000 0.000000 0.375000 0.156250
-1.000000 0.500000 -1.000000 -1.000000 -0.000000 0.000000 0.375000 0.187500
-1.000000 0.000000 -1.000000 -1.000000 -0.000000 0.000000 0.375000 0.125000
-1.000000 0.750000 -1.000000 -1.000000 -0.000000 0.000000 0.375000 0.218750
-1.000000 1.000000 -1.000000 -1.000000 -0.000000 0.000000 0.375000 0.250000
-1.000000 -1.000000 -0.500000 -1.000000 -0.000000 0.000000 0.437500 0.000000
-1.000000 -1.000000 -0.250000 -1.000000 -0.000000 0.000000 0.468750 0.000000
-1.000000 -1.000000 0.000000 -1.000000 -0.000000 0.000000 0.500000 0.000000
-1.000000 -0.750000 -1.000000 -1.000000 -0.000000 0.000000 0.375000 0.031250
-1.000000 -0.500000 -1.000000 -1.000000 -0.000000 0.000000 0.375000 0.062500
-1.000000 -1.000000 -1.000000 -1.000000 -0.000000 0.000000 0.375000 0.000000
-1.000000 -1.000000 -0.750000 -1.000000 -0.000000 0.000000 0.406250 0.000000
-1.000000 -0.250000 -1.000000 -1.000000 -0.000000 0.000000 0.375000 0.093750
-1.000000 -1.000000 0.500000 -1.000000 -0.000000 0.000000 0.562500 0.000000
-1.000000 -1.000000 0.750000 -1.000000 -0.000000 0.000000 0.593750 0.000000
-1.000000 -1.000000 1.000000 -1.000000 -0.000000 0.000000 0.625000 0.000000
-1.000000 -1.000000 0.250000 -1.000000 -0.000000 0.000000 0.531250 0.000000
4 0 1 2 3
4 4 5 6 7
3 8 9 10
3 11 12 13
4 14 15 16 17
3 18 19 20
3 8 21 9
3 11 22 12
3 18 23 19
3 24 25 26
3 24 27 25
3 28 29 30
3 31 32 33
3 31 34 32
3 35 36 37
3 38 39 40
3 38 41 39
3 42 43 44
3 45 46 47
3 45 48 46
3 24 26 49
4 50 51 52 53
4 54 55 56 57
4 58 59 60 61
3 62 63 64
3 62 65 63
3 31 33 66
3 67 68 69
3 67 70 68
3 38 40 71
4 72 73 74 75
4 76 77 78 79
4 80 81 82 83
4 84 85 86 87
4 88 89 90 91
4 92 93 94 95
4 96 97 98 99
4 100 101 102 103
4 104 105 106 107
4 108 109 110 111
4 112 113 114 115
4 116 117 118 119
4 120 121 122 123
4 124 125 126 127
4 128 129 130 131
4 132 133 134 135
4 136 137 138 139
4 140 141 142 143
4 144 145 146 147
4 148 149 150 151
4 152 153 154 155
4 156 157 158 159
4 160 161 162 163
4 164 165 166 167
3 168 169 170
3 168 171 169
3 172 173 174
3 175 176 177
3 175 178 176
3 179 180 181
3 182 183 184
3 182 185 183
3 175 177 186
3 187 188 189
3 187 190 188
3 191 192 193
3 194 195 196
3 194 197 195
3 198 199 200
3 201 202 203
3 201 204 202
3 194 196 205
4 206 207 208 209
4 210 211 212 213
4 214 215 216 217
4 218 219 220 221
4 222 223 224 225
4 226 227 228 229
4 230 231 232 233
4 234 235 236 237
4 238 239 240 241
3 242 243 244
3 242 245 243
3 246 247 248
3 249 250 251
3 249 252 250
3 253 254 255
3 256 257 258
3 256 259 257
3 249 251 260
3 261 262 263
3 261 264 262
3 265 266 267
3 268 269 270
3 268 271 269
3 272 273 274
3 172 275 173
3 172 276 275
3 268 270 277
3 278 279 280
3 278 281 279
3 282 283 284
3 285 286 287
3 285 288 286
3 289 290 291
3 191 292 192
3 191 293 292
3 285 287 294
3 295 296 297
3 295 298 296
3 299 300 301
3 302 303 304
3 302 305 303
3 306 307 308
3 246 309 247
3 246 310 309
3 302 304 311
3 312 313 314
3 312 315 313
3 316 317 318
3 319 320 321
3 319 322 320
3 323 324 325
3 326 327 328
3 326 329 327
3 330 331 332
3 333 334 335
3 333 336 334
3 312 314 337
4 338 339 340 341
4 342 343 344 345
4 346 347 348 349
3 350 351 352
3 350 353 351
3 319 321 354
3 355 356 357
3 355 358 356
3 326 328 359
4 360 361 362 363
4 364 365 366 367
4 368 369 370 371
4 372 373 374 375
4 376 377 378 379
4 380 381 382 383
4 377 380 383 378
4 98 95 380 377
4 95 94 381 380
4 129 376 379 130
4 90 99 376 129
4 99 98 377 376
4 85 372 375 86
4 130 379 372 85
4 379 378 373 372
4 365 368 371 366
4 134 83 368 365
4 83 82 369 368
4 165 364 367 166
4 78 135 364 165
4 135 134 365 364
4 73 360 363 74
4 166 367 360 73
4 367 366 361 360
3 359 180 179
3 359 328 180
3 328 38 180
3 356 359 179
3 356 358 359
3 358 326 359
3 357 70 67
3 357 356 70
3 356 179 70
3 354 199 198
3 354 321 199
3 321 31 199
3 351 354 198
3 351 353 354
3 353 319 354
3 352 65 62
3 352 351 65
3 351 198 65
4 343 346 349 344
4 208 61 346 343
4 61 60 347 346
4 239 342 345 240
4 56 209 342 239
4 209 208 343 342
4 51 338 341 52
4 240 345 338 51
4 345 344 339 338
3 337 254 253
3 337 314 254
3 314 24 254
3 334 337 253
3 334 336 337
3 336 312 337
3 335 48 45
3 335 334 48
3 334 253 48
3 332 273 272
3 332 331 273
3 331 42 273
3 327 332 272
3 327 329 332
3 329 330 332
3 328 41 38
3 328 327 41
3 327 272 41
3 325 290 289
3 325 324 290
3 324 35 290
3 320 325 289
3 320 322 325
3 322 323 325
3 321 34 31
3 321 320 34
3 320 289 34
3 318 307 306
3 318 317 307
3 317 28 307
3 313 318 306
3 313 315 318
3 315 316 318
3 314 27 24
3 314 313 27
3 313 306 27
3 311 384 385
3 311 304 384
3 304 386 384
3 309 311 385
3 309 310 311
3 310 302 311
3 247 387 388
3 247 309 387
3 309 385 387
3 308 30 295
3 308 307 30
3 307 28 30
3 303 308 295
3 303 305 308
3 305 306 308
3 304 297 386
3 304 303 297
3 303 295 297
3 301 389 390
3 301 300 389
3 300 391 389
3 296 301 390
3 296 298 301
3 298 299 301
3 297 392 386
3 297 296 392
3 296 390 392
3 294 393 394
3 294 287 393
3 287 395 393
3 292 294 394
3 292 293 294
3 293 285 294
3 192 396 397
3 192 292 396
3 292 394 396
3 291 37 278
3 291 290 37
3 290 35 37
3 286 291 278
3 286 288 291
3 288 289 291
3 287 280 395
3 287 286 280
3 286 278 280
3 284 398 399
3 284 283 398
3 283 400 398
3 279 284 399
3 279 281 284
3 281 282 284
3 280 401 395
3 280 279 401
3 279 399 401
3 277 402 403
3 277 270 402
3 270 404 402
3 275 277 403
3 275 276 277
3 276 268 277
3 173 405 406
3 173 275 405
3 275 403 405
3 274 44 261
3 274 273 44
3 273 42 44
3 269 274 261
3 269 271 274
3 271 272 274
3 270 263 404
3 270 269 263
3 269 261 263
3 267 407 408
3 267 266 407
3 266 409 407
3 262 267 408
3 262 264 267
3 264 265 267
3 263 410 404
3 263 262 410
3 262 408 410
3 260 411 412
3 260 251 411
3 251 413 411
3 257 260 412
3 257 259 260
3 259 249 260
3 258 414 415
3 258 257 414
3 257 412 414
3 255 49 242
3 255 254 49
3 254 24 49
3 250 255 242
3 250 252 255
3 252 253 255
3 251 244 413
3 251 250 244
3 250 242 244
3 248 416 417
3 248 247 416
3 247 388 416
3 243 248 417
3 243 245 248
3 245 246 248
3 244 418 413
3 244 243 418
3 243 417 418
4 235 238 241 236
4 220 57 238 235
4 57 56 239 238
4 419 234 237 420
4 421 221 234 419
4 221 220 235 234
4 422 230 233 423
4 420 237 230 422
4 237 236 231 230
4 223 226 229 224
4 424 425 226 223
4 425 426 227 226
4 427 222 225 428
4 429 430 222 427
4 430 424 223 222
4 431 218 221 421
4 428 225 218 431
4 225 224 219 218
4 211 214 217 212
4 432 433 214 211
4 433 434 215 214
4 227 210 213 228
4 426 435 210 227
4 435 432 211 210
4 55 206 209 56
4 228 213 206 55
4 213 212 207 206
3 205 436 437
3 205 196 436
3 196 438 436
3 202 205 437
3 202 204 205
3 204 194 205
3 203 439 440
3 203 202 439
3 202 437 439
3 200 66 187
3 200 199 66
3 199 31 66
3 195 200 187
3 195 197 200
3 197 198 200
3 196 189 438
3 196 195 189
3 195 187 189
3 193 441 442
3 193 192 441
3 192 397 441
3 188 193 442
3 188 190 193
3 190 191 193
3 189 443 438
3 189 188 443
3 188 442 443
3 186 444 445
3 186 177 444
3 177 446 444
3 183 186 445
3 183 185 186
3 185 175 186
3 184 447 448
3 184 183 447
3 183 445 447
3 181 71 168
3 181 180 71
3 180 38 71
3 176 181 168
3 176 178 181
3 178 179 181
3 177 170 446
3 177 176 170
3 176 168 170
3 174 449 450
3 174 173 449
3 173 406 449
3 169 174 450
3 169 171 174
3 171 172 174
3 170 451 446
3 170 169 451
3 169 450 451
4 161 164 167 162
4 146 79 164 161
4 79 78 165 164
4 452 160 163 453
4 454 147 160 452
4 147 146 161 160
4 455 156 159 456
4 453 163 156 455
4 163 162 157 156
4 149 152 155 150
4 457 458 152 149
4 458 459 153 152
4 460 148 151 461
4 462 463 148 460
4 463 457 149 148
4 464 144 147 454
4 461 151 144 464
4 151 150 145 144
4 137 140 143 138
4 465 466 140 137
4 466 467 141 140
4 153 136 139 154
4 459 468 136 153
4 468 465 137 136
4 77 132 135 78
4 154 139 132 77
4 139 138 133 132
4 125 128 131 126
4 110 91 128 125
4 91 90 129 128
4 469 124 127 470
4 471 111 124 469
4 111 110 125 124
4 472 120 123 473
4 470 127 120 472
4 127 126 121 120
4 113 116 119 114
4 474 475 116 113
4 475 476 117 116
4 477 112 115 478
4 479 480 112 477
4 480 474 113 112
4 481 108 111 471
4 478 115 108 481
4 115 114 109 108
4 101 104 107 102
4 482 483 104 101
4 483 484 105 104
4 117 100 103 118
4 476 485 100 117
4 485 482 101 100
4 89 96 99 90
4 118 103 96 89
4 103 102 97 96
4 97 92 95 98
4 102 107 92 97
4 107 106 93 92
4 109 88 91 110
4 114 119 88 109
4 119 118 89 88
4 121 84 87 122
4 126 131 84 121
4 131 130 85 84
4 133 80 83 134
4 138 143 80 133
4 143 142 81 80
4 145 76 79 146
4 150 155 76 145
4 155 154 77 76
4 157 72 75 158
4 162 167 72 157
4 167 166 73 72
3 71 171 168
3 71 40 171
3 40 172 171
3 68 178 175
3 68 70 178
3 70 179 178
3 69 185 182
3 69 68 185
3 68 175 185
3 66 190 187
3 66 33 190
3 33 191 190
3 63 197 194
3 63 65 197
3 65 198 197
3 64 204 201
3 64 63 204
3 63 194 204
4 207 58 61 208
4 212 217 58 207
4 217 216 59 58
4 219 54 57 220
4 224 229 54 219
4 229 228 55 54
4 231 50 53 232
4 236 241 50 231
4 241 240 51 50
3 49 245 242
3 49 26 245
3 26 246 245
3 46 252 249
3 46 48 252
3 48 253 252
3 47 259 256
3 47 46 259
3 46 249 259
3 44 264 261
3 44 43 264
3 43 265 264
3 39 271 268
3 39 41 271
3 41 272 271
3 40 276 172
3 40 39 276
3 39 268 276
3 37 281 278
3 37 36 281
3 36 282 281
3 32 288 285
3 32 34 288
3 34 289 288
3 33 293 191
3 33 32 293
3 32 285 293
3 30 298 295
3 30 29 298
3 29 299 298
3 25 305 302
3 25 27 305
3 27 306 305
3 26 310 246
3 26 25 310
3 25 302 310
3 19 315 312
3 19 23 315
3 23 316 315
3 12 322 319
3 12 22 322
3 22 323 322
3 9 329 326
3 9 21 329
3 21 330 329
3 20 336 333
3 20 19 336
3 19 312 336
4 339 14 17 340
4 344 349 14 339
4 349 348 15 14
3 13 353 350
3 13 12 353
3 12 319 353
3 10 358 355
3 10 9 358
3 9 326 358
4 361 4 7 362
4 366 371 4 361
4 371 370 5 4
4 373 0 3 374
4 378 383 0 373
4 383 382 1 0
